# xmcd CD database file
#
# Track frame offsets:
#	150
#	18697
#	31438
#	41232
#	52258
#	66394
#	82750
#	98652
#	112713
#	122999
#	139053
#	155852
#	172786
#	185166
#	196783
#	207765
#	221695
#	238149
#	253818
#	273855
#	285894
#	300374
#	313644
#	336731
#
# Disc length: 4686 seconds
#
# Revision: 0
# Processed by: cddbd v1.5.2PL0 Copyright (c) Steve Scherf et al.
# Submitted via: CDex 1.70beta2
#
DISCID=64124c18
DTITLE=Nicola Arigliano - italian crooner
DYEAR=1999
DGENRE=Jazz
TTITLE0=01 - One for my baby
TTITLE1=02 - All the things you are
TTITLE2=03 - Ain't she sweet
TTITLE3=04 - My funny Valentine
TTITLE4=05 - All of me
TTITLE5=06 - God bless the child
TTITLE6=07 - Black and blue
TTITLE7=08 - But not for me
TTITLE8=09 - I should care
TTITLE9=10 - Black coffee
TTITLE10=11 - Mack the knife
TTITLE11=12 - The lady is a tramp
TTITLE12=13 - Basin street blues
TTITLE13=14 - Have you met miss Jones
TTITLE14=15 - I'm glad there's you
TTITLE15=16 - Sweet Georgia Brown
TTITLE16=17 - That's my desire
TTITLE17=18 - Don't blame me
TTITLE18=19 - The song is you
TTITLE19=20 - I'm beginning to see the light
TTITLE20=21 - Cherokee
TTITLE21=22 - She's funny that way
TTITLE22=23 - That old black magic
TTITLE23=24 - Arrivederci
EXTD=YEAR: 1999
EXTT0=
EXTT1=
EXTT2=
EXTT3=
EXTT4=
EXTT5=
EXTT6=
EXTT7=
EXTT8=
EXTT9=
EXTT10=
EXTT11=
EXTT12=
EXTT13=
EXTT14=
EXTT15=
EXTT16=
EXTT17=
EXTT18=
EXTT19=
EXTT20=
EXTT21=
EXTT22=
EXTT23=
PLAYORDER=
